<?xml version="1.0" standalone="no"?>
<!DOCTYPE svg PUBLIC "-//W3C//DTD SVG 20010904//EN"
 "http://www.w3.org/TR/2001/REC-SVG-20010904/DTD/svg10.dtd">
<svg version="1.0" xmlns="http://www.w3.org/2000/svg"
 width="512.000000pt" height="512.000000pt" viewBox="0 0 512.000000 512.000000"
 preserveAspectRatio="xMidYMid meet">
<metadata>
Created by potrace 1.14, written by Peter Selinger 2001-2017
</metadata>
<g transform="translate(0.000000,512.000000) scale(0.100000,-0.100000)"
fill="#000000" stroke="none">
<path d="M638 5107 c-38 -17 -67 -47 -89 -89 -18 -36 -19 -103 -19 -2492 0
-1778 3 -2462 11 -2479 6 -14 22 -30 36 -36 31 -14 225 -14 257 0 52 24 51 -3
50 1136 l-1 1058 106 -2 c376 -6 678 -50 1111 -160 298 -77 606 -148 673 -157
109 -14 136 -17 222 -25 93 -8 399 -7 470 2 22 3 67 9 100 12 32 4 66 8 75 10
8 2 56 10 105 19 286 53 723 210 796 286 52 53 49 -17 49 1314 l0 1235 -22 26
c-29 32 -73 38 -119 16 -212 -103 -644 -230 -869 -255 -163 -18 -423 -26 -570
-16 -56 3 -259 29 -280 34 -8 3 -33 7 -55 11 -37 5 -113 22 -210 46 -22 5 -49
12 -60 14 -11 2 -123 31 -250 65 -403 105 -585 137 -940 165 -44 4 -129 8
-190 10 -60 2 -118 4 -127 4 -13 1 -16 11 -16 54 2 69 -15 117 -55 155 -53 51
-127 66 -189 39z"/>
</g>
</svg>
